<?xml version="1.0" encoding="utf-8"?>
<!-- Generator: Adobe Illustrator 21.1.0, SVG Export Plug-In . SVG Version: 6.00 Build 0)  -->
<svg version="1.1" id="Layer_1" xmlns="http://www.w3.org/2000/svg" xmlns:xlink="http://www.w3.org/1999/xlink" x="0px" y="0px"
	 viewBox="0 0 654 768" style="enable-background:new 0 0 654 768;" xml:space="preserve">
<style type="text/css">
	.st0{fill:#ADAFB2;}
	.st1{fill:#C8C8CC;}
</style>
<path class="st0" d="M300.4,2c-83.6-1.4-178,56.6-203.6,124.1c-35.4,93.1-18.9,210.4,1.3,260.3s53.9,113.3,87.7,145.6
	c33.9,32.5,105.2,72.8,142.9,72.8c41.8,0,107.7-48.3,142.9-83.6c39.1-39.1,51.2-75.5,75.5-137.6c23.8-60.9,17.5-222.5-13.5-275.1
	C511.4,70.8,466.3,4.7,300.4,2"/>
<path class="st1" d="M316.6,766.7L1,768c0,0-2.7-94.4,32.4-144.3c36.6-52.1,121.4-86.3,121.4-86.3s33.9,40.1,62,56.6
	c39.1,22.9,69.5,39.1,111.9,39.1c49.9,0,90.4-22.9,125.4-51.2c42.5-34.3,41.8-43.2,41.8-43.2s81.5,37.4,113.3,80.9
	c36.4,49.9,44.5,147,44.5,147H316.6"/>
</svg>
